<svg width="131" height="41" viewBox="0 0 131 41" fill="none" xmlns="http://www.w3.org/2000/svg">
<g filter="url(#filter0_d_1_1081)">
<rect x="3" y="3" width="33" height="33" rx="9" fill="#2E34CD"/>
</g>
<g filter="url(#filter1_d_1_1081)">
<rect x="6" y="6" width="27" height="27" rx="7" fill="#2A70FA"/>
</g>
<g filter="url(#filter2_d_1_1081)">
<rect x="9" y="9" width="21" height="21" rx="5" fill="#2CBFEE"/>
</g>
<g filter="url(#filter3_d_1_1081)">
<rect x="12" y="12" width="15" height="15" rx="3" fill="#E2EBFA"/>
</g>
<path d="M50.226 20.1H47.574V24H45.871V14.926H47.574V18.696H50.226V14.926H51.929V24H50.226V20.1ZM57.1109 16.252C56.7209 16.252 56.4436 16.1697 56.2789 16.005C56.1229 15.8403 56.0449 15.641 56.0449 15.407V15.095C56.0449 14.861 56.1229 14.6617 56.2789 14.497C56.4436 14.3323 56.7209 14.25 57.1109 14.25C57.5009 14.25 57.7739 14.3323 57.9299 14.497C58.0946 14.6617 58.1769 14.861 58.1769 15.095V15.407C58.1769 15.641 58.0946 15.8403 57.9299 16.005C57.7739 16.1697 57.5009 16.252 57.1109 16.252ZM54.0689 22.687H56.2789V18.605H54.0689V17.292H57.9429V22.687H59.9969V24H54.0689V22.687ZM68.0778 24.702C68.0778 25.404 67.7832 25.9197 67.1938 26.249C66.6132 26.587 65.7032 26.756 64.4638 26.756C63.8572 26.756 63.3502 26.717 62.9428 26.639C62.5355 26.5697 62.2062 26.4657 61.9548 26.327C61.7122 26.1883 61.5388 26.0193 61.4348 25.82C61.3308 25.6293 61.2788 25.4127 61.2788 25.17C61.2788 24.7973 61.3872 24.5113 61.6038 24.312C61.8205 24.1127 62.1238 23.9653 62.5138 23.87V23.766C62.2538 23.6793 62.0458 23.558 61.8898 23.402C61.7425 23.246 61.6688 23.0293 61.6688 22.752C61.6688 22.4227 61.7772 22.1757 61.9938 22.011C62.2192 21.8463 62.5138 21.7207 62.8778 21.634V21.569C62.4792 21.3783 62.1672 21.1097 61.9418 20.763C61.7165 20.4163 61.6038 19.996 61.6038 19.502C61.6038 19.1293 61.6688 18.8 61.7988 18.514C61.9375 18.2193 62.1282 17.9723 62.3708 17.773C62.6222 17.565 62.9212 17.409 63.2678 17.305C63.6145 17.1923 64.0002 17.136 64.4248 17.136C64.8755 17.136 65.2828 17.1967 65.6468 17.318V17.032C65.6468 16.772 65.7292 16.5553 65.8938 16.382C66.0672 16.2087 66.3055 16.122 66.6088 16.122H67.8178V17.37H66.2318V17.591C66.5612 17.7903 66.8125 18.0503 66.9858 18.371C67.1678 18.683 67.2588 19.06 67.2588 19.502C67.2588 19.8747 67.1895 20.2083 67.0508 20.503C66.9208 20.7977 66.7302 21.0447 66.4788 21.244C66.2362 21.4433 65.9372 21.5993 65.5818 21.712C65.2352 21.816 64.8495 21.868 64.4248 21.868C64.2515 21.868 64.0825 21.8637 63.9178 21.855C63.7618 21.8377 63.6102 21.8073 63.4628 21.764C63.3415 21.8073 63.2245 21.8767 63.1118 21.972C62.9992 22.0673 62.9428 22.193 62.9428 22.349C62.9428 22.557 63.0425 22.687 63.2418 22.739C63.4412 22.7823 63.6795 22.804 63.9568 22.804H65.4778C65.9458 22.804 66.3445 22.8517 66.6738 22.947C67.0032 23.0337 67.2718 23.1637 67.4798 23.337C67.6878 23.5017 67.8395 23.701 67.9348 23.935C68.0302 24.169 68.0778 24.4247 68.0778 24.702ZM66.5178 24.819C66.5178 24.6197 66.4355 24.4593 66.2708 24.338C66.1148 24.2253 65.8202 24.169 65.3868 24.169H63.0728C62.8128 24.3163 62.6828 24.533 62.6828 24.819C62.6828 25.053 62.7782 25.248 62.9688 25.404C63.1682 25.56 63.5018 25.638 63.9698 25.638H65.0488C66.0282 25.638 66.5178 25.365 66.5178 24.819ZM64.4248 20.776C64.8495 20.776 65.1615 20.6763 65.3608 20.477C65.5602 20.269 65.6598 20.0003 65.6598 19.671V19.333C65.6598 19.0037 65.5602 18.7393 65.3608 18.54C65.1615 18.332 64.8495 18.228 64.4248 18.228C64.0088 18.228 63.7012 18.332 63.5018 18.54C63.3025 18.7393 63.2028 19.0037 63.2028 19.333V19.671C63.2028 20.0003 63.3025 20.269 63.5018 20.477C63.7012 20.6763 64.0088 20.776 64.4248 20.776ZM69.3598 14.38H71.0238V18.475H71.0888C71.2361 18.111 71.4614 17.799 71.7648 17.539C72.0768 17.2703 72.5058 17.136 73.0518 17.136C73.7104 17.136 74.2434 17.357 74.6508 17.799C75.0668 18.2323 75.2748 18.8563 75.2748 19.671V24H73.6108V19.905C73.6108 18.9343 73.1904 18.449 72.3498 18.449C72.1764 18.449 72.0118 18.4707 71.8558 18.514C71.6998 18.5573 71.5568 18.6267 71.4268 18.722C71.3054 18.8087 71.2058 18.917 71.1278 19.047C71.0584 19.177 71.0238 19.333 71.0238 19.515V24H69.3598V14.38ZM77.1157 22.687H79.2477V15.693H77.1157V14.38H80.9117V22.687H83.0567V24H77.1157V22.687ZM88.2906 16.252C87.9006 16.252 87.6233 16.1697 87.4586 16.005C87.3026 15.8403 87.2246 15.641 87.2246 15.407V15.095C87.2246 14.861 87.3026 14.6617 87.4586 14.497C87.6233 14.3323 87.9006 14.25 88.2906 14.25C88.6806 14.25 88.9536 14.3323 89.1096 14.497C89.2743 14.6617 89.3566 14.861 89.3566 15.095V15.407C89.3566 15.641 89.2743 15.8403 89.1096 16.005C88.9536 16.1697 88.6806 16.252 88.2906 16.252ZM85.2486 22.687H87.4586V18.605H85.2486V17.292H89.1226V22.687H91.1766V24H85.2486V22.687ZM99.2575 24.702C99.2575 25.404 98.9629 25.9197 98.3735 26.249C97.7929 26.587 96.8829 26.756 95.6435 26.756C95.0369 26.756 94.5299 26.717 94.1225 26.639C93.7152 26.5697 93.3859 26.4657 93.1345 26.327C92.8919 26.1883 92.7185 26.0193 92.6145 25.82C92.5105 25.6293 92.4585 25.4127 92.4585 25.17C92.4585 24.7973 92.5669 24.5113 92.7835 24.312C93.0002 24.1127 93.3035 23.9653 93.6935 23.87V23.766C93.4335 23.6793 93.2255 23.558 93.0695 23.402C92.9222 23.246 92.8485 23.0293 92.8485 22.752C92.8485 22.4227 92.9569 22.1757 93.1735 22.011C93.3989 21.8463 93.6935 21.7207 94.0575 21.634V21.569C93.6589 21.3783 93.3469 21.1097 93.1215 20.763C92.8962 20.4163 92.7835 19.996 92.7835 19.502C92.7835 19.1293 92.8485 18.8 92.9785 18.514C93.1172 18.2193 93.3079 17.9723 93.5505 17.773C93.8019 17.565 94.1009 17.409 94.4475 17.305C94.7942 17.1923 95.1799 17.136 95.6045 17.136C96.0552 17.136 96.4625 17.1967 96.8265 17.318V17.032C96.8265 16.772 96.9089 16.5553 97.0735 16.382C97.2469 16.2087 97.4852 16.122 97.7885 16.122H98.9975V17.37H97.4115V17.591C97.7409 17.7903 97.9922 18.0503 98.1655 18.371C98.3475 18.683 98.4385 19.06 98.4385 19.502C98.4385 19.8747 98.3692 20.2083 98.2305 20.503C98.1005 20.7977 97.9099 21.0447 97.6585 21.244C97.4159 21.4433 97.1169 21.5993 96.7615 21.712C96.4149 21.816 96.0292 21.868 95.6045 21.868C95.4312 21.868 95.2622 21.8637 95.0975 21.855C94.9415 21.8377 94.7899 21.8073 94.6425 21.764C94.5212 21.8073 94.4042 21.8767 94.2915 21.972C94.1789 22.0673 94.1225 22.193 94.1225 22.349C94.1225 22.557 94.2222 22.687 94.4215 22.739C94.6209 22.7823 94.8592 22.804 95.1365 22.804H96.6575C97.1255 22.804 97.5242 22.8517 97.8535 22.947C98.1829 23.0337 98.4515 23.1637 98.6595 23.337C98.8675 23.5017 99.0192 23.701 99.1145 23.935C99.2099 24.169 99.2575 24.4247 99.2575 24.702ZM97.6975 24.819C97.6975 24.6197 97.6152 24.4593 97.4505 24.338C97.2945 24.2253 96.9999 24.169 96.5665 24.169H94.2525C93.9925 24.3163 93.8625 24.533 93.8625 24.819C93.8625 25.053 93.9579 25.248 94.1485 25.404C94.3479 25.56 94.6815 25.638 95.1495 25.638H96.2285C97.2079 25.638 97.6975 25.365 97.6975 24.819ZM95.6045 20.776C96.0292 20.776 96.3412 20.6763 96.5405 20.477C96.7399 20.269 96.8395 20.0003 96.8395 19.671V19.333C96.8395 19.0037 96.7399 18.7393 96.5405 18.54C96.3412 18.332 96.0292 18.228 95.6045 18.228C95.1885 18.228 94.8809 18.332 94.6815 18.54C94.4822 18.7393 94.3825 19.0037 94.3825 19.333V19.671C94.3825 20.0003 94.4822 20.269 94.6815 20.477C94.8809 20.6763 95.1885 20.776 95.6045 20.776ZM100.539 14.38H102.203V18.475H102.268C102.416 18.111 102.641 17.799 102.944 17.539C103.256 17.2703 103.685 17.136 104.231 17.136C104.89 17.136 105.423 17.357 105.83 17.799C106.246 18.2323 106.454 18.8563 106.454 19.671V24H104.79V19.905C104.79 18.9343 104.37 18.449 103.529 18.449C103.356 18.449 103.191 18.4707 103.035 18.514C102.879 18.5573 102.736 18.6267 102.606 18.722C102.485 18.8087 102.385 18.917 102.307 19.047C102.238 19.177 102.203 19.333 102.203 19.515V24H100.539V14.38ZM111.714 24C111.073 24 110.601 23.831 110.297 23.493C109.994 23.155 109.842 22.7173 109.842 22.18V18.605H107.892V17.292H109.218C109.487 17.292 109.678 17.24 109.79 17.136C109.903 17.0233 109.959 16.8283 109.959 16.551V14.926H111.506V17.292H114.236V18.605H111.506V22.687H114.236V24H111.714ZM119.21 24.156C118.673 24.156 118.196 24.0737 117.78 23.909C117.364 23.7443 117.013 23.5103 116.727 23.207C116.45 22.9037 116.238 22.5397 116.09 22.115C115.943 21.6817 115.869 21.1963 115.869 20.659C115.869 20.113 115.943 19.6233 116.09 19.19C116.246 18.7567 116.463 18.3883 116.74 18.085C117.018 17.7817 117.351 17.5477 117.741 17.383C118.14 17.2183 118.586 17.136 119.08 17.136C119.566 17.136 120.003 17.2183 120.393 17.383C120.783 17.539 121.113 17.7643 121.381 18.059C121.659 18.3537 121.871 18.709 122.018 19.125C122.166 19.541 122.239 20.0003 122.239 20.503V21.049H117.533V21.218C117.533 21.7033 117.685 22.0977 117.988 22.401C118.292 22.6957 118.716 22.843 119.262 22.843C119.678 22.843 120.034 22.7607 120.328 22.596C120.632 22.4227 120.883 22.1973 121.082 21.92L122.031 22.869C121.789 23.2243 121.433 23.5277 120.965 23.779C120.506 24.0303 119.921 24.156 119.21 24.156ZM119.093 18.358C118.625 18.358 118.248 18.5053 117.962 18.8C117.676 19.0947 117.533 19.4847 117.533 19.97V20.061H120.575V19.944C120.575 19.4587 120.441 19.073 120.172 18.787C119.912 18.501 119.553 18.358 119.093 18.358ZM123.924 22.687H125.588V18.605H123.924V17.292H127.252V19.125H127.356C127.417 18.891 127.499 18.6657 127.603 18.449C127.716 18.2237 127.855 18.0287 128.019 17.864C128.193 17.6907 128.401 17.552 128.643 17.448C128.886 17.344 129.176 17.292 129.514 17.292H130.242V18.852H128.864C128.362 18.852 127.967 18.9993 127.681 19.294C127.395 19.5887 127.252 19.9657 127.252 20.425V22.687H129.579V24H123.924V22.687Z" fill="#E2EBFA"/>
<defs>
<filter id="filter0_d_1_1081" x="0" y="0" width="39" height="39" filterUnits="userSpaceOnUse" color-interpolation-filters="sRGB">
<feFlood flood-opacity="0" result="BackgroundImageFix"/>
<feColorMatrix in="SourceAlpha" type="matrix" values="0 0 0 0 0 0 0 0 0 0 0 0 0 0 0 0 0 0 127 0" result="hardAlpha"/>
<feOffset/>
<feGaussianBlur stdDeviation="1.5"/>
<feComposite in2="hardAlpha" operator="out"/>
<feColorMatrix type="matrix" values="0 0 0 0 0 0 0 0 0 0 0 0 0 0 0 0 0 0 1 0"/>
<feBlend mode="normal" in2="BackgroundImageFix" result="effect1_dropShadow_1_1081"/>
<feBlend mode="normal" in="SourceGraphic" in2="effect1_dropShadow_1_1081" result="shape"/>
</filter>
<filter id="filter1_d_1_1081" x="2" y="6" width="35" height="35" filterUnits="userSpaceOnUse" color-interpolation-filters="sRGB">
<feFlood flood-opacity="0" result="BackgroundImageFix"/>
<feColorMatrix in="SourceAlpha" type="matrix" values="0 0 0 0 0 0 0 0 0 0 0 0 0 0 0 0 0 0 127 0" result="hardAlpha"/>
<feOffset dy="4"/>
<feGaussianBlur stdDeviation="2"/>
<feComposite in2="hardAlpha" operator="out"/>
<feColorMatrix type="matrix" values="0 0 0 0 0 0 0 0 0 0 0 0 0 0 0 0 0 0 0.25 0"/>
<feBlend mode="normal" in2="BackgroundImageFix" result="effect1_dropShadow_1_1081"/>
<feBlend mode="normal" in="SourceGraphic" in2="effect1_dropShadow_1_1081" result="shape"/>
</filter>
<filter id="filter2_d_1_1081" x="5" y="9" width="29" height="29" filterUnits="userSpaceOnUse" color-interpolation-filters="sRGB">
<feFlood flood-opacity="0" result="BackgroundImageFix"/>
<feColorMatrix in="SourceAlpha" type="matrix" values="0 0 0 0 0 0 0 0 0 0 0 0 0 0 0 0 0 0 127 0" result="hardAlpha"/>
<feOffset dy="4"/>
<feGaussianBlur stdDeviation="2"/>
<feComposite in2="hardAlpha" operator="out"/>
<feColorMatrix type="matrix" values="0 0 0 0 0 0 0 0 0 0 0 0 0 0 0 0 0 0 0.25 0"/>
<feBlend mode="normal" in2="BackgroundImageFix" result="effect1_dropShadow_1_1081"/>
<feBlend mode="normal" in="SourceGraphic" in2="effect1_dropShadow_1_1081" result="shape"/>
</filter>
<filter id="filter3_d_1_1081" x="8" y="12" width="23" height="23" filterUnits="userSpaceOnUse" color-interpolation-filters="sRGB">
<feFlood flood-opacity="0" result="BackgroundImageFix"/>
<feColorMatrix in="SourceAlpha" type="matrix" values="0 0 0 0 0 0 0 0 0 0 0 0 0 0 0 0 0 0 127 0" result="hardAlpha"/>
<feOffset dy="4"/>
<feGaussianBlur stdDeviation="2"/>
<feComposite in2="hardAlpha" operator="out"/>
<feColorMatrix type="matrix" values="0 0 0 0 0 0 0 0 0 0 0 0 0 0 0 0 0 0 0.25 0"/>
<feBlend mode="normal" in2="BackgroundImageFix" result="effect1_dropShadow_1_1081"/>
<feBlend mode="normal" in="SourceGraphic" in2="effect1_dropShadow_1_1081" result="shape"/>
</filter>
</defs>
</svg>
